<?xml version="1.0" encoding="UTF-8"?>
<svg width="159.5px" height="189.584957px" viewBox="0 0 159.5 189.584957" version="1.1" xmlns="http://www.w3.org/2000/svg" xmlns:xlink="http://www.w3.org/1999/xlink">
    <title>Group 7</title>
    <defs>
        <linearGradient x1="50%" y1="0%" x2="-142.187135%" y2="230.749787%" id="linearGradient-1">
            <stop stop-color="#8FD17E" offset="0%"></stop>
            <stop stop-color="#808080" offset="100%"></stop>
        </linearGradient>
    </defs>
    <g id="Page-1" stroke="none" stroke-width="1" fill="none" fill-rule="evenodd">
        <g id="Group" transform="translate(77, 94) scale(-1, 1) translate(-77, -94)">
            <path d="M53.403412,34.6268134 L4,34.6268134 C1.790861,34.6268134 2.66453526e-15,36.4176744 0,38.6268134 L0,180.084334 C1.28785871e-14,182.293473 1.790861,184.084334 4,184.084334 C4.85384608,184.084334 5.68528785,183.81111 6.37269718,183.304631 L47.7032602,152.852491 C49.8197351,151.293084 52.7048768,151.293084 54.8213517,152.852491 L96.1519147,183.304631 C97.9304352,184.615035 100.434504,184.235552 101.744908,182.457031 C102.251388,181.769622 102.524612,180.93818 102.524612,180.084334 L102.524612,128.529211 L102.524612,128.529211" id="Path" stroke="#285A92" stroke-width="11"></path>
            <path d="M83.3235673,13.9283165 L86.1041184,0 L88.8846694,13.9283165 C94.0200941,39.6531913 114.091521,59.7615213 139.769185,64.9063879 L153.67194,67.6920512 L139.769185,70.4777145 C114.091521,75.6225812 94.0200941,95.7309111 88.8846694,121.455786 L86.1041184,135.384102 L83.3235673,121.455786 C78.1881426,95.7309111 58.1167157,75.6225812 32.4390515,70.4777145 L18.5362965,67.6920512 L32.4390515,64.9063879 C58.1167157,59.7615213 78.1881426,39.6531913 83.3235673,13.9283165 Z" id="Path" fill="#285A92" fill-rule="nonzero"></path>
            <path d="M40.6936176,84.8562435 L42.0486963,78.0683931 L43.4037749,84.8562435 C45.9064819,97.3930496 55.6881267,107.192679 68.2019251,109.699987 L74.9773183,111.057557 L68.2019251,112.415127 C55.6881267,114.922436 45.9064819,124.722065 43.4037749,137.258871 L42.0486963,144.046721 L40.6936176,137.258871 C38.1909106,124.722065 28.4092659,114.922436 15.8954675,112.415127 L9.12007422,111.057557 L15.8954675,109.699987 C28.4092659,107.192679 38.1909106,97.3930496 40.6936176,84.8562435 Z" id="Path" fill="url(#linearGradient-1)" fill-rule="nonzero"></path>
            <path d="M131.292614,88.1095709 L132.190133,83.6137219 L133.087653,88.1095709 C134.74529,96.4131697 141.224042,102.903833 149.512402,104.564518 L154,105.463688 L149.512402,106.362858 C141.224042,108.023542 134.74529,114.514206 133.087653,122.817805 L132.190133,127.313654 L131.292614,122.817805 C129.634977,114.514206 123.156225,108.023542 114.867865,106.362858 L110.380267,105.463688 L114.867865,104.564518 C123.156225,102.903833 129.634977,96.4131697 131.292614,88.1095709 Z" id="Path" fill="#A62CBD" fill-rule="nonzero"></path>
        </g>
    </g>
</svg>
